<svg width="759" height="299" viewBox="0 0 759 299" fill="none" xmlns="http://www.w3.org/2000/svg">
<rect x="0.5" y="0.5" width="291" height="47" rx="2.5" fill="white" stroke="#E6E6E6"/>
<path d="M1 5C1 2.79086 2.79086 1 5 1H137V47H5C2.79086 47 1 45.2091 1 43V5Z" fill="white" stroke="#F26126" stroke-width="2"/>
<path d="M34.3984 24.3672V29H33.4375V17.625H37.3125C38.4948 17.625 39.4271 17.9271 40.1094 18.5312C40.7969 19.1354 41.1406 19.9661 41.1406 21.0234C41.1406 22.0911 40.8099 22.9167 40.1484 23.5C39.4922 24.0781 38.5391 24.3672 37.2891 24.3672H34.3984ZM34.3984 23.5547H37.3125C38.2448 23.5547 38.9557 23.3333 39.4453 22.8906C39.9349 22.4479 40.1797 21.8307 40.1797 21.0391C40.1797 20.2526 39.9349 19.6276 39.4453 19.1641C38.9609 18.6953 38.2708 18.4557 37.375 18.4453H34.3984V23.5547ZM48.3203 29C48.2266 28.7344 48.1667 28.3411 48.1406 27.8203C47.8125 28.2474 47.3932 28.5781 46.8828 28.8125C46.3776 29.0417 45.8411 29.1562 45.2734 29.1562C44.4609 29.1562 43.8021 28.9297 43.2969 28.4766C42.7969 28.0234 42.5469 27.4505 42.5469 26.7578C42.5469 25.9349 42.888 25.2839 43.5703 24.8047C44.2578 24.3255 45.2135 24.0859 46.4375 24.0859H48.1328V23.125C48.1328 22.5208 47.9453 22.0469 47.5703 21.7031C47.2005 21.3542 46.6589 21.1797 45.9453 21.1797C45.2943 21.1797 44.7552 21.3464 44.3281 21.6797C43.901 22.013 43.6875 22.4141 43.6875 22.8828L42.75 22.875C42.75 22.2031 43.0625 21.6224 43.6875 21.1328C44.3125 20.638 45.0807 20.3906 45.9922 20.3906C46.9349 20.3906 47.6771 20.6276 48.2188 21.1016C48.7656 21.5703 49.0469 22.2266 49.0625 23.0703V27.0703C49.0625 27.888 49.1484 28.5 49.3203 28.9062V29H48.3203ZM45.3828 28.3281C46.0078 28.3281 46.5651 28.1771 47.0547 27.875C47.5495 27.5729 47.9089 27.1693 48.1328 26.6641V24.8047H46.4609C45.5286 24.8151 44.7995 24.987 44.2734 25.3203C43.7474 25.6484 43.4844 26.1016 43.4844 26.6797C43.4844 27.1536 43.6589 27.5469 44.0078 27.8594C44.362 28.1719 44.8203 28.3281 45.3828 28.3281ZM54.6875 28.3672C55.3385 28.3672 55.8828 28.1849 56.3203 27.8203C56.763 27.4505 57.0026 26.974 57.0391 26.3906H57.9375C57.9115 26.9062 57.75 27.3776 57.4531 27.8047C57.1562 28.2266 56.7604 28.5573 56.2656 28.7969C55.776 29.0365 55.25 29.1562 54.6875 29.1562C53.5781 29.1562 52.6979 28.7708 52.0469 28C51.401 27.2292 51.0781 26.1927 51.0781 24.8906V24.6094C51.0781 23.776 51.224 23.0391 51.5156 22.3984C51.8073 21.7578 52.224 21.263 52.7656 20.9141C53.3125 20.5651 53.9505 20.3906 54.6797 20.3906C55.6068 20.3906 56.3698 20.6667 56.9688 21.2188C57.5729 21.7708 57.8958 22.4974 57.9375 23.3984H57.0391C56.9974 22.737 56.7578 22.2031 56.3203 21.7969C55.888 21.3906 55.3411 21.1875 54.6797 21.1875C53.8359 21.1875 53.1797 21.4922 52.7109 22.1016C52.2474 22.7109 52.0156 23.5651 52.0156 24.6641V24.9375C52.0156 26.0156 52.2474 26.8568 52.7109 27.4609C53.1797 28.0651 53.8385 28.3672 54.6875 28.3672ZM62.4688 23.9766L64.75 20.5469H65.8594L62.9922 24.6953L65.9844 29H64.8828L62.4766 25.4219L60.0703 29H58.9688L61.9531 24.6953L59.0859 20.5469H60.1875L62.4688 23.9766ZM66.9219 24.6484C66.9219 23.8359 67.0781 23.1042 67.3906 22.4531C67.7083 21.8021 68.1536 21.2969 68.7266 20.9375C69.3047 20.5729 69.9583 20.3906 70.6875 20.3906C71.8125 20.3906 72.724 20.7865 73.4219 21.5781C74.1198 22.3646 74.4688 23.4089 74.4688 24.7109V24.9062C74.4688 25.724 74.3099 26.4609 73.9922 27.1172C73.6797 27.7682 73.237 28.2708 72.6641 28.625C72.0911 28.9792 71.4375 29.1562 70.7031 29.1562C69.5833 29.1562 68.6719 28.763 67.9688 27.9766C67.2708 27.1849 66.9219 26.138 66.9219 24.8359V24.6484ZM67.8594 24.9062C67.8594 25.9167 68.1198 26.7474 68.6406 27.3984C69.1667 28.0443 69.8542 28.3672 70.7031 28.3672C71.5469 28.3672 72.2292 28.0443 72.75 27.3984C73.276 26.7474 73.5391 25.8906 73.5391 24.8281V24.6484C73.5391 24.0026 73.4193 23.4115 73.1797 22.875C72.9401 22.3385 72.6042 21.9245 72.1719 21.6328C71.7396 21.3359 71.2448 21.1875 70.6875 21.1875C69.8542 21.1875 69.1745 21.5156 68.6484 22.1719C68.1224 22.8229 67.8594 23.6771 67.8594 24.7344V24.9062ZM75.6484 28.2109L76.0625 27.6719C76.7188 26.7812 77.0964 25.4792 77.1953 23.7656L77.3438 20.5469H82.3359V28.2109H83.2109V31.4844H82.2812V29H75.9297V31.4844H75.0312L75.0391 28.2109H75.6484ZM76.7266 28.2109H81.3984V21.4219H78.2344L78.1328 23.6172C78.0391 25.6328 77.5703 27.1641 76.7266 28.2109ZM86.0469 23.6172H88.4844C89.1094 23.6172 89.6562 23.7318 90.125 23.9609C90.599 24.1849 90.9557 24.4974 91.1953 24.8984C91.4401 25.2995 91.5625 25.7656 91.5625 26.2969C91.5625 27.1146 91.2812 27.7708 90.7188 28.2656C90.1615 28.7552 89.4062 29 88.4531 29H85.1172V20.5469H86.0469V23.6172ZM86.0469 24.4141V28.2109H88.4688C89.1406 28.2109 89.6667 28.0417 90.0469 27.7031C90.4323 27.3646 90.625 26.901 90.625 26.3125C90.625 25.75 90.4375 25.2969 90.0625 24.9531C89.6927 24.6042 89.1849 24.4245 88.5391 24.4141H86.0469ZM94.4297 29H93.4922V20.5469H94.4297V29Z" fill="#333333"/>
<path d="M171.836 29H170.875V18.4453H164.438V29H163.477V17.625H171.836V29ZM174.031 24.6484C174.031 23.8359 174.188 23.1042 174.5 22.4531C174.818 21.8021 175.263 21.2969 175.836 20.9375C176.414 20.5729 177.068 20.3906 177.797 20.3906C178.922 20.3906 179.833 20.7865 180.531 21.5781C181.229 22.3646 181.578 23.4089 181.578 24.7109V24.9062C181.578 25.724 181.419 26.4609 181.102 27.1172C180.789 27.7682 180.346 28.2708 179.773 28.625C179.201 28.9792 178.547 29.1562 177.812 29.1562C176.693 29.1562 175.781 28.763 175.078 27.9766C174.38 27.1849 174.031 26.138 174.031 24.8359V24.6484ZM174.969 24.9062C174.969 25.9167 175.229 26.7474 175.75 27.3984C176.276 28.0443 176.964 28.3672 177.812 28.3672C178.656 28.3672 179.339 28.0443 179.859 27.3984C180.385 26.7474 180.648 25.8906 180.648 24.8281V24.6484C180.648 24.0026 180.529 23.4115 180.289 22.875C180.049 22.3385 179.714 21.9245 179.281 21.6328C178.849 21.3359 178.354 21.1875 177.797 21.1875C176.964 21.1875 176.284 21.5156 175.758 22.1719C175.232 22.8229 174.969 23.6771 174.969 24.7344V24.9062ZM186.641 28.3672C187.292 28.3672 187.836 28.1849 188.273 27.8203C188.716 27.4505 188.956 26.974 188.992 26.3906H189.891C189.865 26.9062 189.703 27.3776 189.406 27.8047C189.109 28.2266 188.714 28.5573 188.219 28.7969C187.729 29.0365 187.203 29.1562 186.641 29.1562C185.531 29.1562 184.651 28.7708 184 28C183.354 27.2292 183.031 26.1927 183.031 24.8906V24.6094C183.031 23.776 183.177 23.0391 183.469 22.3984C183.76 21.7578 184.177 21.263 184.719 20.9141C185.266 20.5651 185.904 20.3906 186.633 20.3906C187.56 20.3906 188.323 20.6667 188.922 21.2188C189.526 21.7708 189.849 22.4974 189.891 23.3984H188.992C188.951 22.737 188.711 22.2031 188.273 21.7969C187.841 21.3906 187.294 21.1875 186.633 21.1875C185.789 21.1875 185.133 21.4922 184.664 22.1016C184.201 22.7109 183.969 23.5651 183.969 24.6641V24.9375C183.969 26.0156 184.201 26.8568 184.664 27.4609C185.133 28.0651 185.792 28.3672 186.641 28.3672ZM197.836 21.3438H194.758V29H193.82V21.3438H190.859V20.5469H197.836V21.3438ZM202.148 27.6562L204.617 20.5469H205.625L202.016 30.4375L201.828 30.875C201.365 31.901 200.648 32.4141 199.68 32.4141C199.456 32.4141 199.216 32.3776 198.961 32.3047L198.953 31.5312L199.438 31.5781C199.896 31.5781 200.266 31.4635 200.547 31.2344C200.833 31.0104 201.076 30.6224 201.273 30.0703L201.688 28.9297L198.5 20.5469H199.523L202.148 27.6562ZM213.57 29H212.633V21.3516H208.078V29H207.141V20.5469H213.57V29ZM222.578 20.5469V29H221.641V21.3516H218.18L218.031 24.5156C217.969 25.6875 217.852 26.5833 217.68 27.2031C217.508 27.8177 217.253 28.2708 216.914 28.5625C216.576 28.8542 216.125 29 215.562 29H215.203V28.1719L215.492 28.1562C216.029 28.1458 216.414 27.8854 216.648 27.375C216.883 26.8646 217.036 25.9531 217.109 24.6406L217.281 20.5469H222.578ZM228.367 29.1562C227.648 29.1562 226.997 28.9792 226.414 28.625C225.836 28.2708 225.385 27.7786 225.062 27.1484C224.74 26.513 224.578 25.8021 224.578 25.0156V24.6797C224.578 23.8672 224.734 23.1354 225.047 22.4844C225.365 21.8333 225.805 21.3229 226.367 20.9531C226.93 20.5781 227.539 20.3906 228.195 20.3906C229.221 20.3906 230.034 20.7422 230.633 21.4453C231.237 22.1432 231.539 23.099 231.539 24.3125V24.8359H225.508V25.0156C225.508 25.974 225.781 26.7734 226.328 27.4141C226.88 28.0495 227.573 28.3672 228.406 28.3672C228.906 28.3672 229.346 28.276 229.727 28.0938C230.112 27.9115 230.461 27.6198 230.773 27.2188L231.359 27.6641C230.672 28.6589 229.674 29.1562 228.367 29.1562ZM228.195 21.1875C227.492 21.1875 226.898 21.4453 226.414 21.9609C225.935 22.4766 225.643 23.1693 225.539 24.0391H230.609V23.9375C230.583 23.125 230.352 22.4635 229.914 21.9531C229.477 21.4427 228.904 21.1875 228.195 21.1875ZM239.852 29H238.914V25.125H234.359V29H233.422V20.5469H234.359V24.3359H238.914V20.5469H239.852V29ZM247.914 20.5469H248.852V29H247.914V22.0547L243.352 29H242.422V20.5469H243.352V27.5L247.914 20.5469ZM254.633 29.1562C253.914 29.1562 253.263 28.9792 252.68 28.625C252.102 28.2708 251.651 27.7786 251.328 27.1484C251.005 26.513 250.844 25.8021 250.844 25.0156V24.6797C250.844 23.8672 251 23.1354 251.312 22.4844C251.63 21.8333 252.07 21.3229 252.633 20.9531C253.195 20.5781 253.805 20.3906 254.461 20.3906C255.487 20.3906 256.299 20.7422 256.898 21.4453C257.503 22.1432 257.805 23.099 257.805 24.3125V24.8359H251.773V25.0156C251.773 25.974 252.047 26.7734 252.594 27.4141C253.146 28.0495 253.839 28.3672 254.672 28.3672C255.172 28.3672 255.612 28.276 255.992 28.0938C256.378 27.9115 256.727 27.6198 257.039 27.2188L257.625 27.6641C256.938 28.6589 255.94 29.1562 254.633 29.1562ZM254.461 21.1875C253.758 21.1875 253.164 21.4453 252.68 21.9609C252.201 22.4766 251.909 23.1693 251.805 24.0391H256.875V23.9375C256.849 23.125 256.617 22.4635 256.18 21.9531C255.742 21.4427 255.169 21.1875 254.461 21.1875Z" fill="black"/>
<path d="M64.3984 185.367V190H63.4375V178.625H67.3125C68.4948 178.625 69.4271 178.927 70.1094 179.531C70.7969 180.135 71.1406 180.966 71.1406 182.023C71.1406 183.091 70.8099 183.917 70.1484 184.5C69.4922 185.078 68.5391 185.367 67.2891 185.367H64.3984ZM64.3984 184.555H67.3125C68.2448 184.555 68.9557 184.333 69.4453 183.891C69.9349 183.448 70.1797 182.831 70.1797 182.039C70.1797 181.253 69.9349 180.628 69.4453 180.164C68.9609 179.695 68.2708 179.456 67.375 179.445H64.3984V184.555ZM78.3203 190C78.2266 189.734 78.1667 189.341 78.1406 188.82C77.8125 189.247 77.3932 189.578 76.8828 189.812C76.3776 190.042 75.8411 190.156 75.2734 190.156C74.4609 190.156 73.8021 189.93 73.2969 189.477C72.7969 189.023 72.5469 188.451 72.5469 187.758C72.5469 186.935 72.888 186.284 73.5703 185.805C74.2578 185.326 75.2135 185.086 76.4375 185.086H78.1328V184.125C78.1328 183.521 77.9453 183.047 77.5703 182.703C77.2005 182.354 76.6589 182.18 75.9453 182.18C75.2943 182.18 74.7552 182.346 74.3281 182.68C73.901 183.013 73.6875 183.414 73.6875 183.883L72.75 183.875C72.75 183.203 73.0625 182.622 73.6875 182.133C74.3125 181.638 75.0807 181.391 75.9922 181.391C76.9349 181.391 77.6771 181.628 78.2188 182.102C78.7656 182.57 79.0469 183.227 79.0625 184.07V188.07C79.0625 188.888 79.1484 189.5 79.3203 189.906V190H78.3203ZM75.3828 189.328C76.0078 189.328 76.5651 189.177 77.0547 188.875C77.5495 188.573 77.9089 188.169 78.1328 187.664V185.805H76.4609C75.5286 185.815 74.7995 185.987 74.2734 186.32C73.7474 186.648 73.4844 187.102 73.4844 187.68C73.4844 188.154 73.6589 188.547 74.0078 188.859C74.362 189.172 74.8203 189.328 75.3828 189.328ZM84.6875 189.367C85.3385 189.367 85.8828 189.185 86.3203 188.82C86.763 188.451 87.0026 187.974 87.0391 187.391H87.9375C87.9115 187.906 87.75 188.378 87.4531 188.805C87.1562 189.227 86.7604 189.557 86.2656 189.797C85.776 190.036 85.25 190.156 84.6875 190.156C83.5781 190.156 82.6979 189.771 82.0469 189C81.401 188.229 81.0781 187.193 81.0781 185.891V185.609C81.0781 184.776 81.224 184.039 81.5156 183.398C81.8073 182.758 82.224 182.263 82.7656 181.914C83.3125 181.565 83.9505 181.391 84.6797 181.391C85.6068 181.391 86.3698 181.667 86.9688 182.219C87.5729 182.771 87.8958 183.497 87.9375 184.398H87.0391C86.9974 183.737 86.7578 183.203 86.3203 182.797C85.888 182.391 85.3411 182.188 84.6797 182.188C83.8359 182.188 83.1797 182.492 82.7109 183.102C82.2474 183.711 82.0156 184.565 82.0156 185.664V185.938C82.0156 187.016 82.2474 187.857 82.7109 188.461C83.1797 189.065 83.8385 189.367 84.6875 189.367ZM92.4688 184.977L94.75 181.547H95.8594L92.9922 185.695L95.9844 190H94.8828L92.4766 186.422L90.0703 190H88.9688L91.9531 185.695L89.0859 181.547H90.1875L92.4688 184.977ZM96.9219 185.648C96.9219 184.836 97.0781 184.104 97.3906 183.453C97.7083 182.802 98.1536 182.297 98.7266 181.938C99.3047 181.573 99.9583 181.391 100.688 181.391C101.812 181.391 102.724 181.786 103.422 182.578C104.12 183.365 104.469 184.409 104.469 185.711V185.906C104.469 186.724 104.31 187.461 103.992 188.117C103.68 188.768 103.237 189.271 102.664 189.625C102.091 189.979 101.438 190.156 100.703 190.156C99.5833 190.156 98.6719 189.763 97.9688 188.977C97.2708 188.185 96.9219 187.138 96.9219 185.836V185.648ZM97.8594 185.906C97.8594 186.917 98.1198 187.747 98.6406 188.398C99.1667 189.044 99.8542 189.367 100.703 189.367C101.547 189.367 102.229 189.044 102.75 188.398C103.276 187.747 103.539 186.891 103.539 185.828V185.648C103.539 185.003 103.419 184.411 103.18 183.875C102.94 183.339 102.604 182.924 102.172 182.633C101.74 182.336 101.245 182.188 100.688 182.188C99.8542 182.188 99.1745 182.516 98.6484 183.172C98.1224 183.823 97.8594 184.677 97.8594 185.734V185.906ZM105.648 189.211L106.062 188.672C106.719 187.781 107.096 186.479 107.195 184.766L107.344 181.547H112.336V189.211H113.211V192.484H112.281V190H105.93V192.484H105.031L105.039 189.211H105.648ZM106.727 189.211H111.398V182.422H108.234L108.133 184.617C108.039 186.633 107.57 188.164 106.727 189.211ZM116.047 184.617H118.484C119.109 184.617 119.656 184.732 120.125 184.961C120.599 185.185 120.956 185.497 121.195 185.898C121.44 186.299 121.562 186.766 121.562 187.297C121.562 188.115 121.281 188.771 120.719 189.266C120.161 189.755 119.406 190 118.453 190H115.117V181.547H116.047V184.617ZM116.047 185.414V189.211H118.469C119.141 189.211 119.667 189.042 120.047 188.703C120.432 188.365 120.625 187.901 120.625 187.312C120.625 186.75 120.438 186.297 120.062 185.953C119.693 185.604 119.185 185.424 118.539 185.414H116.047ZM124.43 190H123.492V181.547H124.43V190Z" fill="#5F5F6A"/>
<path d="M76.3477 219H73.377V209.543L70.459 210.396V208.146L76.0752 206.203H76.3477V219ZM82.9131 211.362H84.3105C85.418 211.362 85.9717 210.82 85.9717 209.736C85.9717 209.314 85.8398 208.972 85.5762 208.708C85.3125 208.438 84.9404 208.304 84.46 208.304C84.0674 208.304 83.7246 208.418 83.4316 208.646C83.1445 208.875 83.001 209.159 83.001 209.499H80.0391C80.0391 208.825 80.2266 208.225 80.6016 207.697C80.9766 207.17 81.4951 206.76 82.1572 206.467C82.8252 206.168 83.5576 206.019 84.3545 206.019C85.7783 206.019 86.8975 206.344 87.7119 206.994C88.5264 207.645 88.9336 208.538 88.9336 209.675C88.9336 210.226 88.7637 210.747 88.4238 211.239C88.0898 211.726 87.6006 212.121 86.9561 212.426C87.6357 212.672 88.1689 213.047 88.5557 213.551C88.9424 214.049 89.1357 214.667 89.1357 215.405C89.1357 216.548 88.6963 217.462 87.8174 218.147C86.9385 218.833 85.7842 219.176 84.3545 219.176C83.5166 219.176 82.7373 219.018 82.0166 218.701C81.3018 218.379 80.7598 217.937 80.3906 217.374C80.0215 216.806 79.8369 216.161 79.8369 215.44H82.8164C82.8164 215.833 82.9746 216.173 83.291 216.46C83.6074 216.747 83.9971 216.891 84.46 216.891C84.9814 216.891 85.3975 216.747 85.708 216.46C86.0186 216.167 86.1738 215.795 86.1738 215.344C86.1738 214.699 86.0127 214.242 85.6904 213.973C85.3682 213.703 84.9229 213.568 84.3545 213.568H82.9131V211.362ZM104.007 207.785L99.2256 219H96.0967L100.887 208.488H94.7871V206.203H104.007V207.785ZM114.167 209.622C114.167 210.243 114.012 210.791 113.701 211.266C113.396 211.74 112.975 212.121 112.436 212.408C113.045 212.707 113.528 213.117 113.886 213.639C114.243 214.154 114.422 214.767 114.422 215.476C114.422 216.618 114.026 217.521 113.235 218.183C112.45 218.845 111.366 219.176 109.983 219.176C108.595 219.176 107.499 218.845 106.696 218.183C105.894 217.515 105.492 216.612 105.492 215.476C105.492 214.79 105.668 214.184 106.02 213.656C106.371 213.129 106.869 212.713 107.514 212.408C106.969 212.121 106.541 211.74 106.23 211.266C105.92 210.791 105.765 210.243 105.765 209.622C105.765 208.509 106.143 207.63 106.898 206.985C107.654 206.341 108.674 206.019 109.957 206.019C111.252 206.019 112.277 206.341 113.033 206.985C113.789 207.63 114.167 208.509 114.167 209.622ZM111.451 215.238C111.451 214.711 111.313 214.307 111.038 214.025C110.769 213.738 110.411 213.595 109.966 213.595C109.521 213.595 109.16 213.738 108.885 214.025C108.609 214.307 108.472 214.711 108.472 215.238C108.472 215.748 108.609 216.152 108.885 216.451C109.166 216.744 109.532 216.891 109.983 216.891C110.423 216.891 110.777 216.744 111.047 216.451C111.316 216.158 111.451 215.754 111.451 215.238ZM109.957 208.304C109.559 208.304 109.254 208.436 109.043 208.699C108.838 208.957 108.735 209.317 108.735 209.78C108.735 210.237 108.841 210.606 109.052 210.888C109.263 211.169 109.573 211.31 109.983 211.31C110.388 211.31 110.689 211.169 110.889 210.888C111.094 210.606 111.196 210.237 111.196 209.78C111.196 209.323 111.091 208.963 110.88 208.699C110.675 208.436 110.367 208.304 109.957 208.304ZM124.854 207.785L120.073 219H116.944L121.734 208.488H115.635V206.203H124.854V207.785Z" fill="black"/>
<path d="M136.491 216.021H133.257V219H132.185V216.021H130.392V215.098H132.185V213.788H130.392V212.874H132.185V206.203H136.544C137.892 206.203 138.943 206.546 139.699 207.231C140.461 207.911 140.842 208.837 140.842 210.009C140.842 211.204 140.473 212.133 139.734 212.795C138.996 213.451 137.941 213.782 136.57 213.788H133.257V215.098H136.491V216.021ZM133.257 212.874H136.544C137.563 212.874 138.354 212.628 138.917 212.136C139.479 211.638 139.761 210.935 139.761 210.026C139.761 209.147 139.485 208.45 138.935 207.935C138.39 207.419 137.637 207.149 136.676 207.126H133.257V212.874Z" fill="#C4C4C4"/>
<path d="M94.5 110C111.928 110 129.016 114.819 143.876 123.926C158.736 133.032 170.788 146.07 178.7 161.598C186.612 177.126 190.076 194.54 188.709 211.914C187.341 229.289 181.196 245.946 170.952 260.046L155.662 248.937C163.857 237.657 168.773 224.331 169.867 210.432C170.961 196.532 168.19 182.601 161.86 170.178C155.53 157.756 145.889 147.325 134.001 140.04C122.113 132.756 108.442 128.9 94.5 128.9V110Z" fill="#F26126"/>
<path d="M22.0244 143.857C30.9511 133.189 42.123 124.623 54.7425 118.77C67.362 112.918 81.118 109.924 95.0283 110.001L94.9226 128.901C83.7944 128.839 72.7896 131.234 62.694 135.916C52.5984 140.598 43.6609 147.451 36.5195 155.986L22.0244 143.857Z" fill="#FFD450"/>
<path d="M0.765978 192.492C2.53352 178.695 7.3254 165.457 14.7995 153.725C22.2736 141.993 32.2457 132.056 44.0037 124.623L54.103 140.598C44.6965 146.545 36.7189 154.495 30.7396 163.88C24.7603 173.266 20.9268 183.856 19.5128 194.894L0.765978 192.492Z" fill="#4E611C"/>
<path d="M170.622 260.497C158.195 277.391 140.501 289.671 120.327 295.402C100.153 301.134 78.646 299.992 59.1926 292.156L66.2541 274.625C81.8168 280.894 99.0226 281.807 115.162 277.222C131.301 272.636 145.456 262.813 155.398 249.298L170.622 260.497Z" fill="#2C2D84"/>
<path d="M59.6132 292.325C40.1225 284.582 23.761 270.576 13.1057 252.513C2.45032 234.449 -1.89341 213.354 0.75859 192.55L19.5069 194.94C17.3853 211.583 20.8603 228.459 29.3845 242.91C37.9088 257.361 50.998 268.566 66.5906 274.76L59.6132 292.325Z" fill="#4DC3F7"/>
<rect x="286.5" y="111.5" width="224" height="35" rx="2.5" fill="white" stroke="#E6E6E6"/>
<rect x="286.5" y="164.5" width="252" height="35" rx="2.5" fill="white" stroke="#E6E6E6"/>
<rect x="286.5" y="221.5" width="252" height="35" rx="2.5" fill="white" stroke="#E6E6E6"/>
<rect x="530.5" y="111.5" width="220" height="35" rx="2.5" fill="white" stroke="#E6E6E6"/>
<rect x="560.5" y="164.5" width="198" height="35" rx="2.5" fill="white" stroke="#E6E6E6"/>
<path d="M344.065 135H342.984V123.126H335.742V135H334.661V122.203H344.065V135ZM350.798 135.176C349.989 135.176 349.257 134.977 348.601 134.578C347.95 134.18 347.443 133.626 347.08 132.917C346.717 132.202 346.535 131.402 346.535 130.518V130.14C346.535 129.226 346.711 128.402 347.062 127.67C347.42 126.938 347.915 126.363 348.548 125.947C349.181 125.525 349.866 125.314 350.604 125.314C351.759 125.314 352.673 125.71 353.347 126.501C354.026 127.286 354.366 128.361 354.366 129.727V130.315H347.581V130.518C347.581 131.596 347.889 132.495 348.504 133.216C349.125 133.931 349.904 134.288 350.842 134.288C351.404 134.288 351.899 134.186 352.327 133.98C352.761 133.775 353.153 133.447 353.505 132.996L354.164 133.497C353.391 134.616 352.269 135.176 350.798 135.176ZM350.604 126.211C349.813 126.211 349.146 126.501 348.601 127.081C348.062 127.661 347.733 128.44 347.616 129.419H353.32V129.305C353.291 128.391 353.03 127.646 352.538 127.072C352.046 126.498 351.401 126.211 350.604 126.211ZM364.061 130.342C364.061 131.824 363.732 133.002 363.076 133.875C362.42 134.742 361.541 135.176 360.439 135.176C359.139 135.176 358.143 134.719 357.451 133.805V138.656H356.405V125.49H357.381L357.434 126.835C358.119 125.821 359.112 125.314 360.413 125.314C361.55 125.314 362.44 125.745 363.085 126.606C363.735 127.468 364.061 128.663 364.061 130.192V130.342ZM363.006 130.157C363.006 128.944 362.757 127.986 362.259 127.283C361.761 126.58 361.066 126.229 360.176 126.229C359.531 126.229 358.978 126.384 358.515 126.694C358.052 127.005 357.697 127.456 357.451 128.048V132.609C357.703 133.154 358.063 133.57 358.532 133.857C359.001 134.145 359.555 134.288 360.193 134.288C361.078 134.288 361.767 133.937 362.259 133.233C362.757 132.524 363.006 131.499 363.006 130.157ZM370.081 135.176C369.272 135.176 368.54 134.977 367.884 134.578C367.233 134.18 366.727 133.626 366.363 132.917C366 132.202 365.818 131.402 365.818 130.518V130.14C365.818 129.226 365.994 128.402 366.346 127.67C366.703 126.938 367.198 126.363 367.831 125.947C368.464 125.525 369.149 125.314 369.888 125.314C371.042 125.314 371.956 125.71 372.63 126.501C373.31 127.286 373.649 128.361 373.649 129.727V130.315H366.864V130.518C366.864 131.596 367.172 132.495 367.787 133.216C368.408 133.931 369.188 134.288 370.125 134.288C370.688 134.288 371.183 134.186 371.61 133.98C372.044 133.775 372.437 133.447 372.788 132.996L373.447 133.497C372.674 134.616 371.552 135.176 370.081 135.176ZM369.888 126.211C369.097 126.211 368.429 126.501 367.884 127.081C367.345 127.661 367.017 128.44 366.899 129.419H372.604V129.305C372.574 128.391 372.313 127.646 371.821 127.072C371.329 126.498 370.685 126.211 369.888 126.211ZM375.812 135V125.49H379.301C380.508 125.49 381.434 125.707 382.078 126.141C382.723 126.568 383.045 127.198 383.045 128.03C383.045 128.505 382.901 128.93 382.614 129.305C382.327 129.674 381.908 129.943 381.357 130.113C381.979 130.23 382.477 130.497 382.852 130.913C383.232 131.329 383.423 131.812 383.423 132.363C383.423 133.201 383.112 133.852 382.491 134.314C381.876 134.771 381.003 135 379.872 135H375.812ZM376.857 130.623V134.121H379.907C380.698 134.121 381.308 133.969 381.735 133.664C382.163 133.359 382.377 132.92 382.377 132.346C382.377 131.818 382.163 131.399 381.735 131.089C381.308 130.778 380.698 130.623 379.907 130.623H376.857ZM376.857 129.744H379.521C381.173 129.721 381.999 129.158 381.999 128.057C381.999 127.477 381.771 127.055 381.313 126.791C380.862 126.521 380.191 126.387 379.301 126.387H376.857V129.744ZM385.189 130.104C385.189 129.19 385.365 128.367 385.717 127.635C386.074 126.902 386.575 126.334 387.22 125.93C387.87 125.52 388.605 125.314 389.426 125.314C390.691 125.314 391.717 125.76 392.502 126.65C393.287 127.535 393.68 128.71 393.68 130.175V130.395C393.68 131.314 393.501 132.144 393.144 132.882C392.792 133.614 392.294 134.18 391.649 134.578C391.005 134.977 390.27 135.176 389.443 135.176C388.184 135.176 387.158 134.733 386.367 133.849C385.582 132.958 385.189 131.78 385.189 130.315V130.104ZM386.244 130.395C386.244 131.531 386.537 132.466 387.123 133.198C387.715 133.925 388.488 134.288 389.443 134.288C390.393 134.288 391.16 133.925 391.746 133.198C392.338 132.466 392.634 131.502 392.634 130.307V130.104C392.634 129.378 392.499 128.713 392.229 128.109C391.96 127.506 391.582 127.04 391.096 126.712C390.609 126.378 390.053 126.211 389.426 126.211C388.488 126.211 387.724 126.58 387.132 127.318C386.54 128.051 386.244 129.012 386.244 130.201V130.395ZM395.007 134.112L395.473 133.506C396.211 132.504 396.636 131.039 396.747 129.111L396.914 125.49H402.53V134.112H403.515V137.795H402.469V135H395.323V137.795H394.312L394.321 134.112H395.007ZM396.22 134.112H401.476V126.475H397.916L397.802 128.944C397.696 131.212 397.169 132.935 396.22 134.112ZM406.705 128.944H409.447C410.15 128.944 410.766 129.073 411.293 129.331C411.826 129.583 412.228 129.935 412.497 130.386C412.772 130.837 412.91 131.361 412.91 131.959C412.91 132.879 412.594 133.617 411.961 134.174C411.334 134.725 410.484 135 409.412 135H405.659V125.49H406.705V128.944ZM406.705 129.841V134.112H409.43C410.186 134.112 410.777 133.922 411.205 133.541C411.639 133.16 411.855 132.639 411.855 131.977C411.855 131.344 411.645 130.834 411.223 130.447C410.807 130.055 410.235 129.853 409.509 129.841H406.705ZM416.136 135H415.081V125.49H416.136V135ZM423.026 128.742L423.809 122.203H431.288V124.506H426.217L425.927 127.046C426.138 126.923 426.413 126.814 426.753 126.721C427.099 126.627 427.436 126.58 427.764 126.58C429.035 126.58 430.011 126.958 430.69 127.714C431.376 128.464 431.719 129.519 431.719 130.878C431.719 131.698 431.534 132.442 431.165 133.11C430.802 133.772 430.289 134.282 429.627 134.64C428.965 134.997 428.183 135.176 427.28 135.176C426.478 135.176 425.725 135.012 425.021 134.684C424.318 134.35 423.768 133.896 423.369 133.321C422.971 132.741 422.774 132.088 422.78 131.361H425.751C425.78 131.83 425.93 132.202 426.199 132.478C426.469 132.753 426.823 132.891 427.263 132.891C428.259 132.891 428.757 132.152 428.757 130.676C428.757 129.311 428.147 128.628 426.929 128.628C426.237 128.628 425.722 128.851 425.382 129.296L423.026 128.742ZM446.687 135H437.757V133.066L441.87 128.742C442.884 127.588 443.391 126.671 443.391 125.991C443.391 125.44 443.271 125.021 443.03 124.734C442.79 124.447 442.441 124.304 441.984 124.304C441.533 124.304 441.167 124.497 440.886 124.884C440.604 125.265 440.464 125.742 440.464 126.316H437.493C437.493 125.531 437.689 124.808 438.082 124.146C438.475 123.478 439.02 122.956 439.717 122.581C440.414 122.206 441.193 122.019 442.055 122.019C443.438 122.019 444.501 122.338 445.245 122.977C445.995 123.615 446.37 124.532 446.37 125.728C446.37 126.231 446.276 126.724 446.089 127.204C445.901 127.679 445.608 128.18 445.21 128.707C444.817 129.229 444.182 129.929 443.303 130.808L441.65 132.715H446.687V135ZM457.066 129.771C457.066 131.499 456.677 132.832 455.897 133.77C455.124 134.707 454.031 135.176 452.619 135.176C451.195 135.176 450.094 134.704 449.314 133.761C448.535 132.817 448.146 131.487 448.146 129.771V127.433C448.146 125.704 448.532 124.371 449.306 123.434C450.085 122.496 451.184 122.027 452.602 122.027C454.02 122.027 455.118 122.499 455.897 123.442C456.677 124.386 457.066 125.719 457.066 127.441V129.771ZM454.104 127.055C454.104 126.135 453.984 125.449 453.744 124.998C453.504 124.541 453.123 124.312 452.602 124.312C452.092 124.312 451.72 124.523 451.485 124.945C451.257 125.367 451.134 126.006 451.116 126.861V130.131C451.116 131.086 451.236 131.786 451.477 132.231C451.717 132.671 452.098 132.891 452.619 132.891C453.123 132.891 453.495 132.677 453.735 132.249C453.976 131.815 454.099 131.139 454.104 130.219V127.055ZM467.49 129.771C467.49 131.499 467.101 132.832 466.321 133.77C465.548 134.707 464.455 135.176 463.043 135.176C461.619 135.176 460.518 134.704 459.738 133.761C458.959 132.817 458.569 131.487 458.569 129.771V127.433C458.569 125.704 458.956 124.371 459.729 123.434C460.509 122.496 461.607 122.027 463.025 122.027C464.443 122.027 465.542 122.499 466.321 123.442C467.101 124.386 467.49 125.719 467.49 127.441V129.771ZM464.528 127.055C464.528 126.135 464.408 125.449 464.168 124.998C463.928 124.541 463.547 124.312 463.025 124.312C462.516 124.312 462.144 124.523 461.909 124.945C461.681 125.367 461.558 126.006 461.54 126.861V130.131C461.54 131.086 461.66 131.786 461.9 132.231C462.141 132.671 462.521 132.891 463.043 132.891C463.547 132.891 463.919 132.677 464.159 132.249C464.399 131.815 464.522 131.139 464.528 130.219V127.055Z" fill="black"/>
<path d="M479.136 132.021H475.901V135H474.829V132.021H473.036V131.098H474.829V129.788H473.036V128.874H474.829V122.203H479.188C480.536 122.203 481.588 122.546 482.344 123.231C483.105 123.911 483.486 124.837 483.486 126.009C483.486 127.204 483.117 128.133 482.379 128.795C481.641 129.451 480.586 129.782 479.215 129.788H475.901V131.098H479.136V132.021ZM475.901 128.874H479.188C480.208 128.874 480.999 128.628 481.562 128.136C482.124 127.638 482.405 126.935 482.405 126.026C482.405 125.147 482.13 124.45 481.579 123.935C481.034 123.419 480.281 123.149 479.32 123.126H475.901V128.874Z" fill="#C4C4C4"/>
<path d="M343.679 184.01C343.532 185.357 343.049 186.389 342.229 187.104C341.414 187.818 340.327 188.176 338.968 188.176C338.019 188.176 337.178 187.938 336.445 187.464C335.719 186.989 335.156 186.318 334.758 185.451C334.359 184.578 334.157 183.582 334.151 182.463V180.802C334.151 179.665 334.351 178.657 334.749 177.778C335.147 176.899 335.719 176.223 336.463 175.748C337.213 175.268 338.074 175.027 339.047 175.027C340.418 175.027 341.499 175.399 342.29 176.144C343.087 176.882 343.55 177.904 343.679 179.211H342.589C342.319 177.037 341.139 175.95 339.047 175.95C337.887 175.95 336.961 176.384 336.27 177.251C335.584 178.118 335.241 179.316 335.241 180.846V182.41C335.241 183.887 335.575 185.064 336.243 185.943C336.917 186.822 337.825 187.262 338.968 187.262C340.099 187.262 340.951 186.992 341.525 186.453C342.1 185.908 342.454 185.094 342.589 184.01H343.679ZM349.075 186.488L351.853 178.49H352.986L348.926 189.617L348.715 190.109C348.193 191.264 347.388 191.841 346.298 191.841C346.046 191.841 345.776 191.8 345.489 191.718L345.48 190.848L346.025 190.9C346.541 190.9 346.957 190.771 347.273 190.514C347.596 190.262 347.868 189.825 348.091 189.204L348.557 187.921L344.971 178.49H346.122L349.075 186.488ZM361.925 188H360.87V179.396H355.746V188H354.691V178.49H361.925V188ZM368.429 188.176C367.62 188.176 366.888 187.977 366.231 187.578C365.581 187.18 365.074 186.626 364.711 185.917C364.348 185.202 364.166 184.402 364.166 183.518V183.14C364.166 182.226 364.342 181.402 364.693 180.67C365.051 179.938 365.546 179.363 366.179 178.947C366.812 178.525 367.497 178.314 368.235 178.314C369.39 178.314 370.304 178.71 370.978 179.501C371.657 180.286 371.997 181.361 371.997 182.727V183.315H365.212V183.518C365.212 184.596 365.52 185.495 366.135 186.216C366.756 186.931 367.535 187.288 368.473 187.288C369.035 187.288 369.53 187.186 369.958 186.98C370.392 186.775 370.784 186.447 371.136 185.996L371.795 186.497C371.021 187.616 369.899 188.176 368.429 188.176ZM368.235 179.211C367.444 179.211 366.776 179.501 366.231 180.081C365.692 180.661 365.364 181.44 365.247 182.419H370.951V182.305C370.922 181.391 370.661 180.646 370.169 180.072C369.677 179.498 369.032 179.211 368.235 179.211ZM381.691 183.342C381.691 184.824 381.363 186.002 380.707 186.875C380.051 187.742 379.172 188.176 378.07 188.176C376.77 188.176 375.773 187.719 375.082 186.805V191.656H374.036V178.49H375.012L375.064 179.835C375.75 178.821 376.743 178.314 378.044 178.314C379.181 178.314 380.071 178.745 380.716 179.606C381.366 180.468 381.691 181.663 381.691 183.192V183.342ZM380.637 183.157C380.637 181.944 380.388 180.986 379.89 180.283C379.392 179.58 378.697 179.229 377.807 179.229C377.162 179.229 376.608 179.384 376.146 179.694C375.683 180.005 375.328 180.456 375.082 181.048V185.609C375.334 186.154 375.694 186.57 376.163 186.857C376.632 187.145 377.186 187.288 377.824 187.288C378.709 187.288 379.397 186.937 379.89 186.233C380.388 185.524 380.637 184.499 380.637 183.157ZM389.294 186.576L393.073 178.49H394.374V188H393.319V180.195L389.663 188H388.916L385.189 180.02V188H384.144V178.49H385.523L389.294 186.576ZM403.198 188C403.093 187.701 403.025 187.259 402.996 186.673C402.627 187.153 402.155 187.525 401.581 187.789C401.013 188.047 400.409 188.176 399.771 188.176C398.856 188.176 398.115 187.921 397.547 187.411C396.984 186.901 396.703 186.257 396.703 185.478C396.703 184.552 397.087 183.819 397.854 183.28C398.628 182.741 399.703 182.472 401.08 182.472H402.987V181.391C402.987 180.711 402.776 180.178 402.354 179.791C401.938 179.398 401.329 179.202 400.526 179.202C399.794 179.202 399.188 179.39 398.707 179.765C398.227 180.14 397.986 180.591 397.986 181.118L396.932 181.109C396.932 180.354 397.283 179.7 397.986 179.149C398.689 178.593 399.554 178.314 400.579 178.314C401.64 178.314 402.475 178.581 403.084 179.114C403.699 179.642 404.016 180.38 404.033 181.329V185.829C404.033 186.749 404.13 187.438 404.323 187.895V188H403.198ZM399.894 187.244C400.597 187.244 401.224 187.074 401.774 186.734C402.331 186.395 402.735 185.94 402.987 185.372V183.28H401.106C400.058 183.292 399.237 183.485 398.646 183.86C398.054 184.229 397.758 184.739 397.758 185.39C397.758 185.923 397.954 186.365 398.347 186.717C398.745 187.068 399.261 187.244 399.894 187.244ZM414.492 183.342C414.492 184.824 414.164 186.002 413.508 186.875C412.852 187.742 411.973 188.176 410.871 188.176C409.57 188.176 408.574 187.719 407.883 186.805V191.656H406.837V178.49H407.812L407.865 179.835C408.551 178.821 409.544 178.314 410.845 178.314C411.981 178.314 412.872 178.745 413.517 179.606C414.167 180.468 414.492 181.663 414.492 183.192V183.342ZM413.438 183.157C413.438 181.944 413.188 180.986 412.69 180.283C412.192 179.58 411.498 179.229 410.607 179.229C409.963 179.229 409.409 179.384 408.946 179.694C408.483 180.005 408.129 180.456 407.883 181.048V185.609C408.135 186.154 408.495 186.57 408.964 186.857C409.433 187.145 409.986 187.288 410.625 187.288C411.51 187.288 412.198 186.937 412.69 186.233C413.188 185.524 413.438 184.499 413.438 183.157ZM419.414 183.641H417.955V188H416.892V178.49H417.955V182.709H419.396L422.886 178.49H424.213L420.311 183.104L424.644 188H423.255L419.414 183.641ZM429.706 188.176C428.897 188.176 428.165 187.977 427.509 187.578C426.858 187.18 426.352 186.626 425.988 185.917C425.625 185.202 425.443 184.402 425.443 183.518V183.14C425.443 182.226 425.619 181.402 425.971 180.67C426.328 179.938 426.823 179.363 427.456 178.947C428.089 178.525 428.774 178.314 429.513 178.314C430.667 178.314 431.581 178.71 432.255 179.501C432.935 180.286 433.274 181.361 433.274 182.727V183.315H426.489V183.518C426.489 184.596 426.797 185.495 427.412 186.216C428.033 186.931 428.812 187.288 429.75 187.288C430.312 187.288 430.808 187.186 431.235 186.98C431.669 186.775 432.062 186.447 432.413 185.996L433.072 186.497C432.299 187.616 431.177 188.176 429.706 188.176ZM429.513 179.211C428.722 179.211 428.054 179.501 427.509 180.081C426.97 180.661 426.642 181.44 426.524 182.419H432.229V182.305C432.199 181.391 431.938 180.646 431.446 180.072C430.954 179.498 430.31 179.211 429.513 179.211ZM442.046 179.387H438.583V188H437.528V179.387H434.197V178.49H442.046V179.387ZM444.938 181.944H447.68C448.383 181.944 448.998 182.073 449.525 182.331C450.059 182.583 450.46 182.935 450.729 183.386C451.005 183.837 451.143 184.361 451.143 184.959C451.143 185.879 450.826 186.617 450.193 187.174C449.566 187.725 448.717 188 447.645 188H443.892V178.49H444.938V181.944ZM444.938 182.841V187.112H447.662C448.418 187.112 449.01 186.922 449.438 186.541C449.871 186.16 450.088 185.639 450.088 184.977C450.088 184.344 449.877 183.834 449.455 183.447C449.039 183.055 448.468 182.853 447.741 182.841H444.938ZM454.368 188H453.313V178.49H454.368V188ZM461.259 181.742L462.041 175.203H469.521V177.506H464.449L464.159 180.046C464.37 179.923 464.646 179.814 464.985 179.721C465.331 179.627 465.668 179.58 465.996 179.58C467.268 179.58 468.243 179.958 468.923 180.714C469.608 181.464 469.951 182.519 469.951 183.878C469.951 184.698 469.767 185.442 469.397 186.11C469.034 186.772 468.521 187.282 467.859 187.64C467.197 187.997 466.415 188.176 465.513 188.176C464.71 188.176 463.957 188.012 463.254 187.684C462.551 187.35 462 186.896 461.602 186.321C461.203 185.741 461.007 185.088 461.013 184.361H463.983C464.013 184.83 464.162 185.202 464.432 185.478C464.701 185.753 465.056 185.891 465.495 185.891C466.491 185.891 466.989 185.152 466.989 183.676C466.989 182.311 466.38 181.628 465.161 181.628C464.47 181.628 463.954 181.851 463.614 182.296L461.259 181.742ZM483.144 175.019V177.348H483.012C481.904 177.348 480.993 177.614 480.278 178.147C479.569 178.675 479.133 179.41 478.969 180.354C479.637 179.697 480.48 179.369 481.5 179.369C482.607 179.369 483.489 179.773 484.146 180.582C484.802 181.391 485.13 182.451 485.13 183.764C485.13 184.578 484.937 185.325 484.55 186.005C484.169 186.685 483.633 187.218 482.941 187.604C482.256 187.985 481.494 188.176 480.656 188.176C479.748 188.176 478.937 187.971 478.222 187.561C477.507 187.145 476.95 186.553 476.552 185.785C476.153 185.018 475.948 184.133 475.937 183.131V181.944C475.937 180.626 476.218 179.442 476.78 178.394C477.349 177.339 478.157 176.513 479.206 175.915C480.255 175.317 481.418 175.019 482.695 175.019H483.144ZM480.472 181.637C480.079 181.637 479.751 181.728 479.487 181.909C479.224 182.091 479.027 182.313 478.898 182.577V183.465C478.898 185.082 479.458 185.891 480.577 185.891C481.028 185.891 481.403 185.688 481.702 185.284C482.007 184.88 482.159 184.373 482.159 183.764C482.159 183.137 482.004 182.627 481.693 182.234C481.389 181.836 480.981 181.637 480.472 181.637ZM495.299 182.771C495.299 184.499 494.909 185.832 494.13 186.77C493.356 187.707 492.264 188.176 490.852 188.176C489.428 188.176 488.326 187.704 487.547 186.761C486.768 185.817 486.378 184.487 486.378 182.771V180.433C486.378 178.704 486.765 177.371 487.538 176.434C488.317 175.496 489.416 175.027 490.834 175.027C492.252 175.027 493.351 175.499 494.13 176.442C494.909 177.386 495.299 178.719 495.299 180.441V182.771ZM492.337 180.055C492.337 179.135 492.217 178.449 491.977 177.998C491.736 177.541 491.355 177.312 490.834 177.312C490.324 177.312 489.952 177.523 489.718 177.945C489.489 178.367 489.366 179.006 489.349 179.861V183.131C489.349 184.086 489.469 184.786 489.709 185.231C489.949 185.671 490.33 185.891 490.852 185.891C491.355 185.891 491.728 185.677 491.968 185.249C492.208 184.815 492.331 184.139 492.337 183.219V180.055ZM505.723 182.771C505.723 184.499 505.333 185.832 504.554 186.77C503.78 187.707 502.688 188.176 501.275 188.176C499.852 188.176 498.75 187.704 497.971 186.761C497.191 185.817 496.802 184.487 496.802 182.771V180.433C496.802 178.704 497.188 177.371 497.962 176.434C498.741 175.496 499.84 175.027 501.258 175.027C502.676 175.027 503.774 175.499 504.554 176.442C505.333 177.386 505.723 178.719 505.723 180.441V182.771ZM502.761 180.055C502.761 179.135 502.641 178.449 502.4 177.998C502.16 177.541 501.779 177.312 501.258 177.312C500.748 177.312 500.376 177.523 500.142 177.945C499.913 178.367 499.79 179.006 499.772 179.861V183.131C499.772 184.086 499.893 184.786 500.133 185.231C500.373 185.671 500.754 185.891 501.275 185.891C501.779 185.891 502.151 185.677 502.392 185.249C502.632 184.815 502.755 184.139 502.761 183.219V180.055Z" fill="black"/>
<path d="M517.368 185.021H514.134V188H513.062V185.021H511.269V184.098H513.062V182.788H511.269V181.874H513.062V175.203H517.421C518.769 175.203 519.82 175.546 520.576 176.231C521.338 176.911 521.719 177.837 521.719 179.009C521.719 180.204 521.35 181.133 520.611 181.795C519.873 182.451 518.818 182.782 517.447 182.788H514.134V184.098H517.368V185.021ZM514.134 181.874H517.421C518.44 181.874 519.231 181.628 519.794 181.136C520.356 180.638 520.638 179.935 520.638 179.026C520.638 178.147 520.362 177.45 519.812 176.935C519.267 176.419 518.514 176.149 517.553 176.126H514.134V181.874Z" fill="#C4C4C4"/>
<path d="M338.889 240.403L342.527 232.203H343.802L338.854 242.917L338.537 243.523C337.916 244.631 337.002 245.185 335.795 245.185C335.438 245.185 335.162 245.152 334.969 245.088L335.065 244.209C335.188 244.25 335.435 244.271 335.804 244.271C336.53 244.271 337.113 243.898 337.553 243.154L337.772 242.759L338.326 241.616L333.483 232.203H334.723L338.889 240.403ZM348.592 244.288C349.324 244.288 349.937 244.083 350.429 243.673C350.927 243.257 351.196 242.721 351.237 242.064H352.248C352.219 242.645 352.037 243.175 351.703 243.655C351.369 244.13 350.924 244.502 350.367 244.771C349.816 245.041 349.225 245.176 348.592 245.176C347.344 245.176 346.354 244.742 345.621 243.875C344.895 243.008 344.531 241.842 344.531 240.377V240.061C344.531 239.123 344.695 238.294 345.023 237.573C345.352 236.853 345.82 236.296 346.43 235.903C347.045 235.511 347.763 235.314 348.583 235.314C349.626 235.314 350.484 235.625 351.158 236.246C351.838 236.867 352.201 237.685 352.248 238.698H351.237C351.19 237.954 350.921 237.354 350.429 236.896C349.942 236.439 349.327 236.211 348.583 236.211C347.634 236.211 346.896 236.554 346.368 237.239C345.847 237.925 345.586 238.886 345.586 240.122V240.43C345.586 241.643 345.847 242.589 346.368 243.269C346.896 243.948 347.637 244.288 348.592 244.288ZM361.67 235.49V245H360.615V236.396H356.722L356.555 239.955C356.484 241.273 356.353 242.281 356.159 242.979C355.966 243.67 355.679 244.18 355.298 244.508C354.917 244.836 354.41 245 353.777 245H353.373V244.068L353.698 244.051C354.302 244.039 354.735 243.746 354.999 243.172C355.263 242.598 355.436 241.572 355.518 240.096L355.711 235.49H361.67ZM367.515 243.488L370.292 235.49H371.426L367.365 246.617L367.154 247.109C366.633 248.264 365.827 248.841 364.737 248.841C364.485 248.841 364.216 248.8 363.929 248.718L363.92 247.848L364.465 247.9C364.98 247.9 365.396 247.771 365.713 247.514C366.035 247.262 366.308 246.825 366.53 246.204L366.996 244.921L363.41 235.49H364.562L367.515 243.488ZM378.984 236.396H374.177V245H373.122V235.49H378.984V236.396ZM386.903 235.49H387.958V245H386.903V237.187L381.771 245H380.725V235.49H381.771V243.312L386.903 235.49ZM398.988 236.123C400.195 236.123 401.174 236.519 401.924 237.31C402.674 238.095 403.049 239.138 403.049 240.438V240.667C403.049 241.528 402.876 242.305 402.53 242.996C402.19 243.682 401.698 244.218 401.054 244.604C400.415 244.985 399.68 245.176 398.848 245.176C397.594 245.176 396.577 244.76 395.798 243.928C395.024 243.09 394.638 241.974 394.638 240.579V239.735C394.638 237.767 395.013 236.193 395.763 235.016C396.513 233.838 397.579 233.135 398.962 232.906C399.835 232.766 400.447 232.575 400.799 232.335C401.156 232.095 401.335 231.767 401.335 231.351H402.24C402.24 231.843 402.138 232.25 401.933 232.572C401.728 232.895 401.42 233.155 401.01 233.354C400.6 233.548 399.973 233.712 399.129 233.847C398.162 233.999 397.383 234.412 396.791 235.086C396.205 235.754 395.824 236.65 395.648 237.775C396.023 237.283 396.492 236.885 397.055 236.58C397.623 236.275 398.268 236.123 398.988 236.123ZM395.692 240.447V240.667C395.692 241.739 395.982 242.612 396.562 243.286C397.143 243.954 397.904 244.288 398.848 244.288C399.797 244.288 400.559 243.951 401.133 243.277C401.707 242.598 401.994 241.707 401.994 240.605V240.377C401.994 239.387 401.701 238.578 401.115 237.951C400.535 237.324 399.773 237.011 398.83 237.011C397.887 237.011 397.128 237.33 396.554 237.969C395.979 238.602 395.692 239.428 395.692 240.447ZM411.073 245C410.968 244.701 410.9 244.259 410.871 243.673C410.502 244.153 410.03 244.525 409.456 244.789C408.888 245.047 408.284 245.176 407.646 245.176C406.731 245.176 405.99 244.921 405.422 244.411C404.859 243.901 404.578 243.257 404.578 242.478C404.578 241.552 404.962 240.819 405.729 240.28C406.503 239.741 407.578 239.472 408.955 239.472H410.862V238.391C410.862 237.711 410.651 237.178 410.229 236.791C409.813 236.398 409.204 236.202 408.401 236.202C407.669 236.202 407.062 236.39 406.582 236.765C406.102 237.14 405.861 237.591 405.861 238.118L404.807 238.109C404.807 237.354 405.158 236.7 405.861 236.149C406.564 235.593 407.429 235.314 408.454 235.314C409.515 235.314 410.35 235.581 410.959 236.114C411.574 236.642 411.891 237.38 411.908 238.329V242.829C411.908 243.749 412.005 244.438 412.198 244.895V245H411.073ZM407.769 244.244C408.472 244.244 409.099 244.074 409.649 243.734C410.206 243.395 410.61 242.94 410.862 242.372V240.28H408.981C407.933 240.292 407.112 240.485 406.521 240.86C405.929 241.229 405.633 241.739 405.633 242.39C405.633 242.923 405.829 243.365 406.222 243.717C406.62 244.068 407.136 244.244 407.769 244.244ZM422.024 245H420.97V240.641H415.846V245H414.791V235.49H415.846V239.753H420.97V235.49H422.024V245ZM427.43 240.641H425.971V245H424.907V235.49H425.971V239.709H427.412L430.901 235.49H432.229L428.326 240.104L432.659 245H431.271L427.43 240.641ZM440.183 245C440.077 244.701 440.01 244.259 439.98 243.673C439.611 244.153 439.14 244.525 438.565 244.789C437.997 245.047 437.394 245.176 436.755 245.176C435.841 245.176 435.1 244.921 434.531 244.411C433.969 243.901 433.688 243.257 433.688 242.478C433.688 241.552 434.071 240.819 434.839 240.28C435.612 239.741 436.688 239.472 438.064 239.472H439.972V238.391C439.972 237.711 439.761 237.178 439.339 236.791C438.923 236.398 438.313 236.202 437.511 236.202C436.778 236.202 436.172 236.39 435.691 236.765C435.211 237.14 434.971 237.591 434.971 238.118L433.916 238.109C433.916 237.354 434.268 236.7 434.971 236.149C435.674 235.593 436.538 235.314 437.563 235.314C438.624 235.314 439.459 235.581 440.068 236.114C440.684 236.642 441 237.38 441.018 238.329V242.829C441.018 243.749 441.114 244.438 441.308 244.895V245H440.183ZM436.878 244.244C437.581 244.244 438.208 244.074 438.759 243.734C439.315 243.395 439.72 242.94 439.972 242.372V240.28H438.091C437.042 240.292 436.222 240.485 435.63 240.86C435.038 241.229 434.742 241.739 434.742 242.39C434.742 242.923 434.938 243.365 435.331 243.717C435.729 244.068 436.245 244.244 436.878 244.244ZM450.325 237.362H451.723C452.83 237.362 453.384 236.82 453.384 235.736C453.384 235.314 453.252 234.972 452.988 234.708C452.725 234.438 452.353 234.304 451.872 234.304C451.479 234.304 451.137 234.418 450.844 234.646C450.557 234.875 450.413 235.159 450.413 235.499H447.451C447.451 234.825 447.639 234.225 448.014 233.697C448.389 233.17 448.907 232.76 449.569 232.467C450.237 232.168 450.97 232.019 451.767 232.019C453.19 232.019 454.31 232.344 455.124 232.994C455.938 233.645 456.346 234.538 456.346 235.675C456.346 236.226 456.176 236.747 455.836 237.239C455.502 237.726 455.013 238.121 454.368 238.426C455.048 238.672 455.581 239.047 455.968 239.551C456.354 240.049 456.548 240.667 456.548 241.405C456.548 242.548 456.108 243.462 455.229 244.147C454.351 244.833 453.196 245.176 451.767 245.176C450.929 245.176 450.149 245.018 449.429 244.701C448.714 244.379 448.172 243.937 447.803 243.374C447.434 242.806 447.249 242.161 447.249 241.44H450.229C450.229 241.833 450.387 242.173 450.703 242.46C451.02 242.747 451.409 242.891 451.872 242.891C452.394 242.891 452.81 242.747 453.12 242.46C453.431 242.167 453.586 241.795 453.586 241.344C453.586 240.699 453.425 240.242 453.103 239.973C452.78 239.703 452.335 239.568 451.767 239.568H450.325V237.362ZM460.749 237.362H462.146C463.254 237.362 463.808 236.82 463.808 235.736C463.808 235.314 463.676 234.972 463.412 234.708C463.148 234.438 462.776 234.304 462.296 234.304C461.903 234.304 461.561 234.418 461.268 234.646C460.98 234.875 460.837 235.159 460.837 235.499H457.875C457.875 234.825 458.062 234.225 458.438 233.697C458.812 233.17 459.331 232.76 459.993 232.467C460.661 232.168 461.394 232.019 462.19 232.019C463.614 232.019 464.733 232.344 465.548 232.994C466.362 233.645 466.77 234.538 466.77 235.675C466.77 236.226 466.6 236.747 466.26 237.239C465.926 237.726 465.437 238.121 464.792 238.426C465.472 238.672 466.005 239.047 466.392 239.551C466.778 240.049 466.972 240.667 466.972 241.405C466.972 242.548 466.532 243.462 465.653 244.147C464.774 244.833 463.62 245.176 462.19 245.176C461.353 245.176 460.573 245.018 459.853 244.701C459.138 244.379 458.596 243.937 458.227 243.374C457.857 242.806 457.673 242.161 457.673 241.44H460.652C460.652 241.833 460.811 242.173 461.127 242.46C461.443 242.747 461.833 242.891 462.296 242.891C462.817 242.891 463.233 242.747 463.544 242.46C463.854 242.167 464.01 241.795 464.01 241.344C464.01 240.699 463.849 240.242 463.526 239.973C463.204 239.703 462.759 239.568 462.19 239.568H460.749V237.362Z" fill="black"/>
<path d="M478.573 242.021H475.339V245H474.267V242.021H472.474V241.098H474.267V239.788H472.474V238.874H474.267V232.203H478.626C479.974 232.203 481.025 232.546 481.781 233.231C482.543 233.911 482.924 234.837 482.924 236.009C482.924 237.204 482.555 238.133 481.816 238.795C481.078 239.451 480.023 239.782 478.652 239.788H475.339V241.098H478.573V242.021ZM475.339 238.874H478.626C479.646 238.874 480.437 238.628 480.999 238.136C481.562 237.638 481.843 236.935 481.843 236.026C481.843 235.147 481.567 234.45 481.017 233.935C480.472 233.419 479.719 233.149 478.758 233.126H475.339V238.874Z" fill="#C4C4C4"/>
<path d="M586.225 123.504H586.523C587.514 123.51 588.407 123.729 589.204 124.163C590.001 124.597 590.622 125.203 591.067 125.982C591.513 126.756 591.735 127.617 591.735 128.566C591.735 129.521 591.516 130.386 591.076 131.159C590.637 131.933 590.019 132.539 589.222 132.979C588.431 133.418 587.54 133.644 586.55 133.655H586.225V135.527H585.17V133.655H584.924C583.916 133.655 583.011 133.441 582.208 133.014C581.411 132.58 580.787 131.974 580.336 131.194C579.891 130.415 579.668 129.545 579.668 128.584C579.668 127.629 579.891 126.762 580.336 125.982C580.787 125.197 581.414 124.588 582.217 124.154C583.02 123.721 583.922 123.504 584.924 123.504H585.17V121.676H586.225V123.504ZM586.225 124.4V132.768H586.479C587.757 132.768 588.776 132.384 589.538 131.616C590.3 130.849 590.681 129.832 590.681 128.566C590.681 127.365 590.326 126.387 589.617 125.631C588.908 124.875 587.959 124.468 586.77 124.409L586.225 124.4ZM584.933 124.4C583.649 124.4 582.627 124.781 581.865 125.543C581.104 126.305 580.723 127.318 580.723 128.584C580.723 129.809 581.077 130.796 581.786 131.546C582.495 132.296 583.447 132.7 584.643 132.759L585.17 132.768V124.4H584.933ZM599.751 135C599.646 134.701 599.578 134.259 599.549 133.673C599.18 134.153 598.708 134.525 598.134 134.789C597.565 135.047 596.962 135.176 596.323 135.176C595.409 135.176 594.668 134.921 594.1 134.411C593.537 133.901 593.256 133.257 593.256 132.478C593.256 131.552 593.64 130.819 594.407 130.28C595.181 129.741 596.256 129.472 597.633 129.472H599.54V128.391C599.54 127.711 599.329 127.178 598.907 126.791C598.491 126.398 597.882 126.202 597.079 126.202C596.347 126.202 595.74 126.39 595.26 126.765C594.779 127.14 594.539 127.591 594.539 128.118L593.484 128.109C593.484 127.354 593.836 126.7 594.539 126.149C595.242 125.593 596.106 125.314 597.132 125.314C598.192 125.314 599.027 125.581 599.637 126.114C600.252 126.642 600.568 127.38 600.586 128.329V132.829C600.586 133.749 600.683 134.438 600.876 134.895V135H599.751ZM596.446 134.244C597.149 134.244 597.776 134.074 598.327 133.734C598.884 133.395 599.288 132.94 599.54 132.372V130.28H597.659C596.61 130.292 595.79 130.485 595.198 130.86C594.606 131.229 594.311 131.739 594.311 132.39C594.311 132.923 594.507 133.365 594.899 133.717C595.298 134.068 595.813 134.244 596.446 134.244ZM606.914 134.288C607.646 134.288 608.259 134.083 608.751 133.673C609.249 133.257 609.519 132.721 609.56 132.064H610.57C610.541 132.645 610.359 133.175 610.025 133.655C609.691 134.13 609.246 134.502 608.689 134.771C608.139 135.041 607.547 135.176 606.914 135.176C605.666 135.176 604.676 134.742 603.943 133.875C603.217 133.008 602.854 131.842 602.854 130.377V130.061C602.854 129.123 603.018 128.294 603.346 127.573C603.674 126.853 604.143 126.296 604.752 125.903C605.367 125.511 606.085 125.314 606.905 125.314C607.948 125.314 608.807 125.625 609.48 126.246C610.16 126.867 610.523 127.685 610.57 128.698H609.56C609.513 127.954 609.243 127.354 608.751 126.896C608.265 126.439 607.649 126.211 606.905 126.211C605.956 126.211 605.218 126.554 604.69 127.239C604.169 127.925 603.908 128.886 603.908 130.122V130.43C603.908 131.643 604.169 132.589 604.69 133.269C605.218 133.948 605.959 134.288 606.914 134.288ZM619.509 126.387H616.046V135H614.991V126.387H611.66V125.49H619.509V126.387ZM620.142 130.324C620.142 128.777 620.443 127.556 621.047 126.659C621.656 125.763 622.497 125.314 623.569 125.314C624.185 125.314 624.706 125.452 625.134 125.728V121.5H626.18V125.763C626.613 125.464 627.152 125.314 627.797 125.314C628.811 125.314 629.622 125.722 630.231 126.536C630.841 127.351 631.172 128.484 631.225 129.938L631.233 130.509C631.233 131.956 630.929 133.099 630.319 133.937C629.71 134.769 628.875 135.185 627.814 135.185C627.182 135.185 626.637 135.047 626.18 134.771V138.656H625.134V134.78C624.683 135.05 624.155 135.185 623.552 135.185C622.55 135.185 621.747 134.807 621.144 134.051C620.54 133.289 620.209 132.237 620.15 130.896L620.142 130.324ZM630.188 130.324C630.188 129.047 629.956 128.042 629.493 127.31C629.036 126.577 628.395 126.211 627.568 126.211C626.971 126.211 626.508 126.34 626.18 126.598V133.954C626.549 134.183 627.018 134.297 627.586 134.297C628.406 134.297 629.045 133.969 629.502 133.312C629.959 132.65 630.188 131.654 630.188 130.324ZM621.196 130.509C621.196 131.704 621.416 132.636 621.855 133.304C622.295 133.966 622.928 134.297 623.754 134.297C624.305 134.297 624.765 134.177 625.134 133.937V126.571C624.794 126.331 624.34 126.211 623.771 126.211C622.951 126.211 622.315 126.577 621.864 127.31C621.419 128.036 621.196 129.103 621.196 130.509ZM636.489 133.488L639.267 125.49H640.4L636.34 136.617L636.129 137.109C635.607 138.264 634.802 138.841 633.712 138.841C633.46 138.841 633.19 138.8 632.903 138.718L632.895 137.848L633.439 137.9C633.955 137.9 634.371 137.771 634.688 137.514C635.01 137.262 635.282 136.825 635.505 136.204L635.971 134.921L632.385 125.49H633.536L636.489 133.488ZM641.323 134.112L641.789 133.506C642.527 132.504 642.952 131.039 643.063 129.111L643.23 125.49H648.847V134.112H649.831V137.795H648.785V135H641.64V137.795H640.629L640.638 134.112H641.323ZM642.536 134.112H647.792V126.475H644.232L644.118 128.944C644.013 131.212 643.485 132.935 642.536 134.112ZM664.579 135H655.649V133.066L659.763 128.742C660.776 127.588 661.283 126.671 661.283 125.991C661.283 125.44 661.163 125.021 660.923 124.734C660.683 124.447 660.334 124.304 659.877 124.304C659.426 124.304 659.06 124.497 658.778 124.884C658.497 125.265 658.356 125.742 658.356 126.316H655.386C655.386 125.531 655.582 124.808 655.975 124.146C656.367 123.478 656.912 122.956 657.609 122.581C658.307 122.206 659.086 122.019 659.947 122.019C661.33 122.019 662.394 122.338 663.138 122.977C663.888 123.615 664.263 124.532 664.263 125.728C664.263 126.231 664.169 126.724 663.981 127.204C663.794 127.679 663.501 128.18 663.103 128.707C662.71 129.229 662.074 129.929 661.195 130.808L659.543 132.715H664.579V135ZM678.378 129.999H679.679V132.284H678.378V135H675.416V132.284H670.468L670.292 130.474L675.416 122.229V122.203H678.378V129.999ZM673.113 129.999H675.416V126.062L675.231 126.36L673.113 129.999ZM681.155 128.742L681.938 122.203H689.417V124.506H684.346L684.056 127.046C684.267 126.923 684.542 126.814 684.882 126.721C685.228 126.627 685.564 126.58 685.893 126.58C687.164 126.58 688.14 126.958 688.819 127.714C689.505 128.464 689.848 129.519 689.848 130.878C689.848 131.698 689.663 132.442 689.294 133.11C688.931 133.772 688.418 134.282 687.756 134.64C687.094 134.997 686.312 135.176 685.409 135.176C684.606 135.176 683.854 135.012 683.15 134.684C682.447 134.35 681.896 133.896 681.498 133.321C681.1 132.741 680.903 132.088 680.909 131.361H683.88C683.909 131.83 684.059 132.202 684.328 132.478C684.598 132.753 684.952 132.891 685.392 132.891C686.388 132.891 686.886 132.152 686.886 130.676C686.886 129.311 686.276 128.628 685.058 128.628C684.366 128.628 683.851 128.851 683.511 129.296L681.155 128.742ZM699.226 129.999H700.526V132.284H699.226V135H696.264V132.284H691.315L691.14 130.474L696.264 122.229V122.203H699.226V129.999ZM693.961 129.999H696.264V126.062L696.079 126.36L693.961 129.999Z" fill="black"/>
<path d="M711.935 132.021H708.7V135H707.628V132.021H705.835V131.098H707.628V129.788H705.835V128.874H707.628V122.203H711.987C713.335 122.203 714.387 122.546 715.143 123.231C715.904 123.911 716.285 124.837 716.285 126.009C716.285 127.204 715.916 128.133 715.178 128.795C714.439 129.451 713.385 129.782 712.014 129.788H708.7V131.098H711.935V132.021ZM708.7 128.874H711.987C713.007 128.874 713.798 128.628 714.36 128.136C714.923 127.638 715.204 126.935 715.204 126.026C715.204 125.147 714.929 124.45 714.378 123.935C713.833 123.419 713.08 123.149 712.119 123.126H708.7V128.874Z" fill="#C4C4C4"/>
<path d="M619.028 175.203H620.109V188H619.028V177.049L611.742 188H610.652V175.203H611.742V186.146L619.028 175.203ZM630.454 188H629.399V183.641H624.275V188H623.221V178.49H624.275V182.753H629.399V178.49H630.454V188ZM640.104 179.387H636.642V188H635.587V179.387H632.256V178.49H640.104V179.387ZM644.815 188.176C644.007 188.176 643.274 187.977 642.618 187.578C641.968 187.18 641.461 186.626 641.098 185.917C640.734 185.202 640.553 184.402 640.553 183.518V183.14C640.553 182.226 640.729 181.402 641.08 180.67C641.438 179.938 641.933 179.363 642.565 178.947C643.198 178.525 643.884 178.314 644.622 178.314C645.776 178.314 646.69 178.71 647.364 179.501C648.044 180.286 648.384 181.361 648.384 182.727V183.315H641.599V183.518C641.599 184.596 641.906 185.495 642.521 186.216C643.143 186.931 643.922 187.288 644.859 187.288C645.422 187.288 645.917 187.186 646.345 186.98C646.778 186.775 647.171 186.447 647.522 185.996L648.182 186.497C647.408 187.616 646.286 188.176 644.815 188.176ZM644.622 179.211C643.831 179.211 643.163 179.501 642.618 180.081C642.079 180.661 641.751 181.44 641.634 182.419H647.338V182.305C647.309 181.391 647.048 180.646 646.556 180.072C646.063 179.498 645.419 179.211 644.622 179.211ZM658.078 183.342C658.078 184.824 657.75 186.002 657.094 186.875C656.438 187.742 655.559 188.176 654.457 188.176C653.156 188.176 652.16 187.719 651.469 186.805V191.656H650.423V178.49H651.398L651.451 179.835C652.137 178.821 653.13 178.314 654.431 178.314C655.567 178.314 656.458 178.745 657.103 179.606C657.753 180.468 658.078 181.663 658.078 183.192V183.342ZM657.023 183.157C657.023 181.944 656.774 180.986 656.276 180.283C655.778 179.58 655.084 179.229 654.193 179.229C653.549 179.229 652.995 179.384 652.532 179.694C652.069 180.005 651.715 180.456 651.469 181.048V185.609C651.721 186.154 652.081 186.57 652.55 186.857C653.019 187.145 653.572 187.288 654.211 187.288C655.096 187.288 655.784 186.937 656.276 186.233C656.774 185.524 657.023 184.499 657.023 183.157ZM667.72 188H666.665V183.641H661.541V188H660.486V178.49H661.541V182.753H666.665V178.49H667.72V188ZM674.224 188.176C673.415 188.176 672.683 187.977 672.026 187.578C671.376 187.18 670.869 186.626 670.506 185.917C670.143 185.202 669.961 184.402 669.961 183.518V183.14C669.961 182.226 670.137 181.402 670.488 180.67C670.846 179.938 671.341 179.363 671.974 178.947C672.606 178.525 673.292 178.314 674.03 178.314C675.185 178.314 676.099 178.71 676.772 179.501C677.452 180.286 677.792 181.361 677.792 182.727V183.315H671.007V183.518C671.007 184.596 671.314 185.495 671.93 186.216C672.551 186.931 673.33 187.288 674.268 187.288C674.83 187.288 675.325 187.186 675.753 186.98C676.187 186.775 676.579 186.447 676.931 185.996L677.59 186.497C676.816 187.616 675.694 188.176 674.224 188.176ZM674.03 179.211C673.239 179.211 672.571 179.501 672.026 180.081C671.487 180.661 671.159 181.44 671.042 182.419H676.746V182.305C676.717 181.391 676.456 180.646 675.964 180.072C675.472 179.498 674.827 179.211 674.03 179.211ZM686.563 179.387H683.101V188H682.046V179.387H678.715V178.49H686.563V179.387ZM692.259 181.742L693.041 175.203H700.521V177.506H695.449L695.159 180.046C695.37 179.923 695.646 179.814 695.985 179.721C696.331 179.627 696.668 179.58 696.996 179.58C698.268 179.58 699.243 179.958 699.923 180.714C700.608 181.464 700.951 182.519 700.951 183.878C700.951 184.698 700.767 185.442 700.397 186.11C700.034 186.772 699.521 187.282 698.859 187.64C698.197 187.997 697.415 188.176 696.513 188.176C695.71 188.176 694.957 188.012 694.254 187.684C693.551 187.35 693 186.896 692.602 186.321C692.203 185.741 692.007 185.088 692.013 184.361H694.983C695.013 184.83 695.162 185.202 695.432 185.478C695.701 185.753 696.056 185.891 696.495 185.891C697.491 185.891 697.989 185.152 697.989 183.676C697.989 182.311 697.38 181.628 696.161 181.628C695.47 181.628 694.954 181.851 694.614 182.296L692.259 181.742ZM711.393 182.771C711.393 184.499 711.003 185.832 710.224 186.77C709.45 187.707 708.357 188.176 706.945 188.176C705.521 188.176 704.42 187.704 703.641 186.761C702.861 185.817 702.472 184.487 702.472 182.771V180.433C702.472 178.704 702.858 177.371 703.632 176.434C704.411 175.496 705.51 175.027 706.928 175.027C708.346 175.027 709.444 175.499 710.224 176.442C711.003 177.386 711.393 178.719 711.393 180.441V182.771ZM708.431 180.055C708.431 179.135 708.311 178.449 708.07 177.998C707.83 177.541 707.449 177.312 706.928 177.312C706.418 177.312 706.046 177.523 705.812 177.945C705.583 178.367 705.46 179.006 705.442 179.861V183.131C705.442 184.086 705.562 184.786 705.803 185.231C706.043 185.671 706.424 185.891 706.945 185.891C707.449 185.891 707.821 185.677 708.062 185.249C708.302 184.815 708.425 184.139 708.431 183.219V180.055ZM721.816 182.771C721.816 184.499 721.427 185.832 720.647 186.77C719.874 187.707 718.781 188.176 717.369 188.176C715.945 188.176 714.844 187.704 714.064 186.761C713.285 185.817 712.896 184.487 712.896 182.771V180.433C712.896 178.704 713.282 177.371 714.056 176.434C714.835 175.496 715.934 175.027 717.352 175.027C718.77 175.027 719.868 175.499 720.647 176.442C721.427 177.386 721.816 178.719 721.816 180.441V182.771ZM718.854 180.055C718.854 179.135 718.734 178.449 718.494 177.998C718.254 177.541 717.873 177.312 717.352 177.312C716.842 177.312 716.47 177.523 716.235 177.945C716.007 178.367 715.884 179.006 715.866 179.861V183.131C715.866 184.086 715.986 184.786 716.227 185.231C716.467 185.671 716.848 185.891 717.369 185.891C717.873 185.891 718.245 185.677 718.485 185.249C718.726 184.815 718.849 184.139 718.854 183.219V180.055Z" fill="black"/>
<path d="M733.462 185.021H730.228V188H729.155V185.021H727.362V184.098H729.155V182.788H727.362V181.874H729.155V175.203H733.515C734.862 175.203 735.914 175.546 736.67 176.231C737.432 176.911 737.812 177.837 737.812 179.009C737.812 180.204 737.443 181.133 736.705 181.795C735.967 182.451 734.912 182.782 733.541 182.788H730.228V184.098H733.462V185.021ZM730.228 181.874H733.515C734.534 181.874 735.325 181.628 735.888 181.136C736.45 180.638 736.731 179.935 736.731 179.026C736.731 178.147 736.456 177.45 735.905 176.935C735.36 176.419 734.607 176.149 733.646 176.126H730.228V181.874Z" fill="#C4C4C4"/>
<circle cx="306.5" cy="129.5" r="7.5" fill="#F26126"/>
<circle cx="306.5" cy="182.5" r="7.5" fill="#4DC3F7"/>
<circle cx="306.5" cy="239.5" r="7.5" fill="#FFD450"/>
<circle cx="552.5" cy="129.5" r="7.5" fill="#2C2D84"/>
<circle cx="582.5" cy="182.5" r="7.5" fill="#4E611C"/>
</svg>
